<svg width="382" height="241" viewBox="0 0 382 241" fill="none" xmlns="http://www.w3.org/2000/svg"><path d="M8 120.723H445.337" stroke="#aebfbd" stroke-linecap="round" stroke-linejoin="round"></path><path d="M52 121h79.579C153.315 121 174.407 113.624 191.406 100.078l46.626-37.1556C255.031 49.3764 276.124 42 297.86 42H420" stroke="#aebfbd" stroke-linecap="round" stroke-linejoin="round"></path><path d="M109 121h79.792c27.294.0 53.297-11.618 71.508-31.9481l50.254-56.1038C328.764 12.6178 354.768 1 382.061 1H508" stroke="#aebfbd" stroke-linecap="round" stroke-linejoin="round"></path><path d="M184 121h41.797c31.753.0 61.452 15.701 79.333 41.942l23.928 35.116C346.938 224.299 376.638 240 408.391 240H485" stroke="#aebfbd" stroke-linecap="round" stroke-linejoin="round"></path><path d="M120 121h56.448C199.535 121 221.848 129.32 239.299 144.435l26.705 23.13C283.455 182.68 305.769 191 328.855 191H420" stroke="#aebfbd" stroke-linecap="round" stroke-linejoin="round"></path><ellipse cx="3.5" cy="12.5" rx="3.5" ry="12.5" transform="matrix(1 0 0 -1 47 133)" stroke="#aebfbd"></ellipse><ellipse cx="3.5" cy="12.5" rx="3.5" ry="12.5" transform="matrix(1 0 0 -1 54 133)" stroke="#aebfbd"></ellipse><ellipse cx="3.5" cy="12.5" rx="3.5" ry="12.5" transform="matrix(1 0 0 -1 61 133)" stroke="#aebfbd"></ellipse><ellipse cx="3.5" cy="12.5" rx="3.5" ry="12.5" transform="matrix(1 0 0 -1 68 133)" stroke="#aebfbd"></ellipse><path d="M81.9937 121.248C81.9405 124.421 81.5508 127.402 80.9039 129.585 80.257 131.769 79.4015 132.99 78.5115 133S76.7638 131.809 76.1129 129.641C75.462 127.474 75.0668 124.501 75.0077 121.33" stroke="#aebfbd"></path><path d="M46.9937 119.752C46.9662 118.113 46.8486 116.51 46.6476 115.034 46.4467 113.558 46.1662 112.237 45.8223 111.148 45.4785 110.059 45.0779 109.222 44.6435 108.686 44.2091 108.15 43.7494 107.924 43.2906 108.022 42.8318 108.121 42.3829 108.541 41.9695 109.258 41.5562 109.976 41.1864 110.978 40.8815 112.206 40.5765 113.434 40.3422 114.865 40.1921 116.416 40.0419 117.968 39.9788 119.609 40.0063 121.248" stroke="#aebfbd"></path><circle cx="6" cy="6" r="6" transform="matrix(1 0 0 -1 0 127)" fill="#aebfbd"></circle></svg>