<svg width="382" height="241" viewBox="0 0 382 241" fill="none" xmlns="http://www.w3.org/2000/svg"><path d="M374 120.723H-63.337" stroke="#aebfbd" stroke-linecap="round" stroke-linejoin="round"></path><path d="M330 121H250.421C228.685 121 207.593 113.624 190.594 100.078L143.968 62.9224C126.969 49.3764 105.876 42 84.14 42H-38" stroke="#aebfbd" stroke-linecap="round" stroke-linejoin="round"></path><circle cx="4" cy="4" r="4" transform="matrix(1 0 0 -1 149 74)" fill="#aebfbd"></circle><circle cx="4" cy="4" r="4" transform="matrix(1 0 0 -1 62 125)" fill="#aebfbd"></circle><circle cx="4" cy="4" r="4" transform="matrix(1 0 0 -1 132 154)" fill="#aebfbd"></circle><path d="M273 121H193.208c-27.294.0-53.297-11.618-71.508-31.9481L71.4463 32.9481C53.2358 12.6178 27.2323 1-.0614058 1H-126" stroke="#aebfbd" stroke-linecap="round" stroke-linejoin="round"></path><path d="M198 121H156.203c-31.753.0-61.4521 15.701-79.3326 41.942L52.942 198.058C35.0615 224.299 5.36238 240-26.391 240H-103" stroke="#aebfbd" stroke-linecap="round" stroke-linejoin="round"></path><path d="M262 121H205.552C182.465 121 160.152 129.32 142.701 144.435l-26.705 23.13C98.5451 182.68 76.2314 191 53.1445 191H-38" stroke="#aebfbd" stroke-linecap="round" stroke-linejoin="round"></path><ellipse cx="331.5" cy="120.5" rx="3.5" ry="12.5" transform="rotate(-180 331.5 120.5)" stroke="#aebfbd"></ellipse><ellipse cx="324.5" cy="120.5" rx="3.5" ry="12.5" transform="rotate(-180 324.5 120.5)" stroke="#aebfbd"></ellipse><ellipse cx="317.5" cy="120.5" rx="3.5" ry="12.5" transform="rotate(-180 317.5 120.5)" stroke="#aebfbd"></ellipse><ellipse cx="310.5" cy="120.5" rx="3.5" ry="12.5" transform="rotate(-180 310.5 120.5)" stroke="#aebfbd"></ellipse><path d="M300.006 121.248C300.06 124.421 300.449 127.402 301.096 129.585 301.743 131.769 302.599 132.99 303.489 133 304.379 133.01 305.236 131.809 305.887 129.641 306.538 127.474 306.933 124.501 306.992 121.33" stroke="#aebfbd"></path><path d="M335.006 119.752C335.034 118.113 335.151 116.51 335.352 115.034 335.553 113.558 335.834 112.237 336.178 111.148S336.922 109.222 337.356 108.686C337.791 108.15 338.251 107.924 338.709 108.022 339.168 108.121 339.617 108.541 340.03 109.258 340.444 109.976 340.814 110.978 341.119 112.206 341.424 113.434 341.658 114.865 341.808 116.416 341.958 117.968 342.021 119.609 341.994 121.248" stroke="#aebfbd"></path><circle cx="376" cy="121" r="6" transform="rotate(180 376 121)" fill="#aebfbd"></circle></svg>