<svg class="" width="172" height="104" viewBox="0 0 172 104" fill="none" xmlns="http://www.w3.org/2000/svg"><g opacity=".2"><path fill-rule="evenodd" clip-rule="evenodd" d="M52.3267 101.404v1C51.993 102.404 51.6597 102.401 51.3267 102.394 38.1975 102.139 25.6609 96.8599 16.3571 87.6412 6.81737 78.1887 1.45801 65.3683 1.45801 52.0004c0-13.3679 5.35937-26.1883 14.89909-35.6408C25.6609 7.14085 38.1975 1.8619 51.3267 1.60641 51.6597 1.59993 51.993 1.59668 52.3267 1.59668v1V52.0004 101.404zm-1-98.7974C38.4599 2.86196 26.1766 8.03764 17.061 17.0699 7.70977 26.3356 2.45801 38.9007 2.45801 52.0004S7.70976 77.6651 17.061 86.9308C26.1766 95.9631 38.4599 101.139 51.3267 101.394V52.0004 2.6066zM111.793 101.404v1C111.459 102.404 111.126 102.401 110.793 102.394 97.6638 102.139 85.1271 96.8599 75.8233 87.6412c-9.5397-9.4525-14.899-22.2729-14.899-35.6408C60.9243 38.6325 66.2836 25.8121 75.8234 16.3596 85.1271 7.14085 97.6638 1.8619 110.793 1.60641 111.126 1.59993 111.459 1.59668 111.793 1.59668v1V52.0004 101.404zm-1-98.7974c-12.8668.25536-25.1502 5.43104-34.2658 14.4633C67.176 26.3356 61.9243 38.9007 61.9243 52.0004S67.176 77.6651 76.5272 86.9308C85.6428 95.9631 97.9262 101.139 110.793 101.394V52.0004 2.6066zm58.75 98.7874C156.87 101.135 144.771 95.9631 135.789 86.9358 126.57 77.6712 121.39 65.1047 121.39 52.0004 121.39 38.8961 126.57 26.3295 135.789 17.0649c8.982-9.02724 21.081-14.19911 33.754-14.45801V52.0004 101.394zm1-99.79732C170.209 1.59668 169.876 1.60002 169.543 1.60669c-12.939.25904-25.294 5.5375-34.463 14.75291C125.674 25.8121 120.39 38.6325 120.39 52.0004S125.674 78.1886 135.08 87.6412C144.249 96.8566 156.604 102.135 169.543 102.394 169.876 102.401 170.209 102.404 170.543 102.404v-1V52.0004 2.59668v-1z" fill="#285d60"></path></g></svg>