<svg class="" width="172" height="104" viewBox="0 0 172 104" fill="none" xmlns="http://www.w3.org/2000/svg"><g opacity=".2" clip-path="url(#clip0_1657_12695)"><path fill-rule="evenodd" clip-rule="evenodd" d="M54.6615 101.546c27.6256.0 50.0165-22.3473 50.0165-49.9094.0-27.562-22.3909-49.90906-50.0165-49.90906-27.6256.0-50.01697 22.34706-50.01697 49.90906.0 27.5621 22.39137 49.9094 50.01697 49.9094zm0 1c28.1759.0 51.0165-22.7931 51.0165-50.9094C105.678 23.5203 82.8374.727539 54.6615.727539 26.4856.727539 3.64453 23.5203 3.64453 51.6366c0 28.1163 22.84107 50.9094 51.01697 50.9094zM77.3506 39.3574l-26.4285 26L50.5714 65.7024 50.2208 65.3574l-10.5715-10.4L40.3507 54.2445 50.5714 64.2996l26.078-25.6551L77.3506 39.3574zM169 27.501v50c0 14.0832-11.417 25.5-25.5 25.5S118 91.5842 118 77.501v-50c0-14.0833 11.417-25.50002 25.5-25.50002S169 13.4177 169 27.501zm-52 0c0-14.6356 11.864-26.50002 26.5-26.50002S170 12.8654 170 27.501v50c0 14.6355-11.864 26.5-26.5 26.5S117 92.1365 117 77.501v-50z" fill="#285d60"></path></g><defs><clipPath id="clip0_1657_12695"><rect width="172" height="104" fill="#fff"></rect></clipPath></defs></svg>