<svg class="" width="172" height="104" viewBox="0 0 172 104" fill="none" xmlns="http://www.w3.org/2000/svg"><g opacity=".2"><path fill-rule="evenodd" clip-rule="evenodd" d="M54.6615 101.546c27.6256.0 50.0165-22.3473 50.0165-49.9094.0-27.562-22.3909-49.90906-50.0165-49.90906-27.6256.0-50.01697 22.34706-50.01697 49.90906.0 27.5621 22.39137 49.9094 50.01697 49.9094zm0 1c28.1759.0 51.0165-22.7931 51.0165-50.9094C105.678 23.5203 82.8374.727539 54.6615.727539 26.4856.727539 3.64453 23.5203 3.64453 51.6366c0 28.1163 22.84107 50.9094 51.01697 50.9094zM54.5222 68.1329V80.7275h1V68.1222C59.1152 67.9632 61.5699 66.5109 63.1702 64.6944 64.8517 62.7859 65.5699 60.5003 65.7164 58.9566L65.7174 58.9461 65.718 58.9356C65.7933 57.5002 65.3216 55.321 63.7123 53.3277c-1.5456-1.9145-4.1169-3.629-8.1901-4.3726V33.2435C61.4285 33.5332 63.8901 37.6827 63.8901 39.7925H64.8901C64.8901 37.0836 61.9372 32.5363 55.5222 32.2425V22.5457h-1v9.6861C51.2467 32.3139 48.8549 33.5797 47.2697 35.0638 46.4528 35.8287 45.8498 36.6515 45.4488 37.4006 45.055 38.1362 44.8329 38.8443 44.8329 39.3769 44.8329 39.4886 44.8256 39.6338 44.8169 39.8074 44.7674 40.7957 44.6718 42.7039 45.6104 44.587c1.111 2.229 3.6001 4.3413 8.9118 5.2161V67.1326C51.0408 67.0495 48.6856 65.6894 47.1389 64.0237 45.5286 62.2894 44.7796 60.2056 44.585 58.8389L43.595 58.9799c.2196 1.5423 1.045 3.8222 2.8111 5.7242C48.1348 66.5659 50.7507 68.0488 54.5222 68.1329zm1-1.0117C58.8183 66.9645 61.0052 65.6391 62.4199 64.0334 63.9383 62.31 64.5879 60.2383 64.7199 58.8727 64.7798 57.6752 64.3796 55.7462 62.9343 53.9559c-1.3542-1.6774-3.6493-3.2608-7.4121-3.9834V67.1212zm-1-18.3321V33.2321C51.5214 33.3135 49.3681 34.4691 47.9532 35.7938 47.2165 36.4836 46.6802 37.2191 46.3304 37.8726 45.9733 38.5397 45.8329 39.0783 45.8329 39.3769 45.8329 39.5281 45.8248 39.7064 45.8157 39.9075 45.7697 40.9231 45.6974 42.5198 46.5054 44.1409 47.4225 45.9808 49.5422 47.935 54.5222 48.7891zM118.339 102.263C131.439 102.008 143.945 96.7405 153.225 87.5452 162.741 78.1165 168.085 65.3304 168.085 52.0003 168.085 38.6701 162.741 25.884 153.225 16.4553c-9.28-9.19525-21.786-14.46253-34.886-14.71801V52.0003 102.263zm-1-101.535461C117.673.727539 118.006.730732 118.339.737102 131.701.992714 144.461 6.36326 153.929 15.745 163.633 25.3605 169.085 38.4019 169.085 52.0003c0 13.5983-5.452 26.6398-15.156 36.2553C144.461 97.6373 131.701 103.008 118.339 103.263 118.006 103.27 117.673 103.273 117.339 103.273v-1V52.0003 1.72754.727539z" fill="#285d60"></path></g></svg>