<svg width="422" class="absolute w-1423 h-1170 flex bottom-0" height="170" viewBox="0 0 422 170" fill="none" xmlns="http://www.w3.org/2000/svg"><g opacity=".6"><path d="M358.988 126.831H221.74C200.88 126.831 180.748 119.16 165.177 105.279L77.185 26.8368C61.6141 12.9558 41.4825 5.28516 20.6226 5.28516H-329.067" stroke="#516b66"></path><path d="M328.99 126.832H328.473c-26.653.0-51.763 12.502-67.827 33.771l-33.605 44.492c-16.064 21.269-41.174 33.771-67.828 33.771H-364.35" stroke="#516b66"></path><path d="M328.99 126.832H278.949c-17.345.0-34.275-5.306-48.517-15.206L189.038 82.851c-14.241-9.9002-31.171-15.2065-48.516-15.2065H-395.001" stroke="#516b66"></path><path d="M328.99 126.832H123.749C101.205 126.832 79.5853 135.787 63.6448 151.728L.874476 214.498C-15.0661 230.439-36.6862 239.394-59.2296 239.394H-371.748" stroke="#516b66"></path><path d="M421.998 126.83H10.2649C-1.03891 126.83-12.2292 124.576-22.651 120.198l-41.3951-17.386c-10.4219-4.3777-21.6122-6.6323-32.916-6.6323H-393.945" stroke="#516b66"></path></g><circle cx="416.712" cy="126.831" r="4.78461" fill="#516b66" stroke="#516b66"></circle></svg>