<svg class="hidden md:block w-1146 h-1241 md:w-1235 lg:w-1250 scale-[-1]" viewBox="0 0 251 241" fill="none" xmlns="http://www.w3.org/2000/svg"><path d="M250 121H-347" stroke="#285d60" stroke-linecap="round" stroke-linejoin="round"></path><path d="M112 121H-20.977c-22.1737.0-43.6637-7.676-60.8198-21.7238L-175.286 22.7238C-192.442 8.67588-213.933 1-236.106 1H-432" stroke="#285d60" stroke-linecap="round" stroke-linejoin="round"></path><path d="M10 121H-74.5665c-26.6615.0-52.1215 11.088-70.2835 30.607l-53.766 57.786C-216.777 228.913-242.238 240-268.899 240H-401" stroke="#285d60" stroke-linecap="round" stroke-linejoin="round"></path><path d="M97 121H-.841083C-19.0743 121-36.9305 126.192-52.3205 135.97l-63.0555 40.06C-130.766 185.808-148.622 191-166.856 191H-312" stroke="#285d60" stroke-linecap="round" stroke-linejoin="round"></path><ellipse cx="207.5" cy="120.5" rx="3.5" ry="12.5" transform="rotate(-180 207.5 120.5)" stroke="#285d60"></ellipse><ellipse cx="200.5" cy="120.5" rx="3.5" ry="12.5" transform="rotate(-180 200.5 120.5)" stroke="#285d60"></ellipse><ellipse cx="193.5" cy="120.5" rx="3.5" ry="12.5" transform="rotate(-180 193.5 120.5)" stroke="#285d60"></ellipse><ellipse cx="186.5" cy="120.5" rx="3.5" ry="12.5" transform="rotate(-180 186.5 120.5)" stroke="#285d60"></ellipse><path d="M176.006 121.248C176.06 124.421 176.449 127.402 177.096 129.585 177.743 131.769 178.599 132.99 179.489 133 180.379 133.01 181.236 131.809 181.887 129.641 182.538 127.474 182.933 124.501 182.992 121.33" stroke="#285d60"></path><path d="M211.006 119.752C211.034 118.113 211.151 116.51 211.352 115.034S211.834 112.237 212.178 111.148 212.922 109.222 213.356 108.686C213.791 108.15 214.251 107.924 214.709 108.022 215.168 108.121 215.617 108.541 216.03 109.258 216.444 109.976 216.814 110.978 217.119 112.206 217.424 113.434 217.658 114.865 217.808 116.416 217.958 117.968 218.021 119.609 217.994 121.248" stroke="#285d60"></path><circle cx="4" cy="4" r="3.5" transform="matrix(1 0 0 -1 243 125)" fill="#285d60" stroke="#f3f1ec"></circle></svg>